<!--?xml version="1.0" encoding="utf-8"?-->
<!-- Generator: Adobe Illustrator 15.1.0, SVG Export Plug-In . SVG Version: 6.00 Build 0)  -->

<svg version="1.1" id="_x32_" xmlns="http://www.w3.org/2000/svg" xmlns:xlink="http://www.w3.org/1999/xlink" x="0px" y="0px" width="512px" height="512px" viewBox="0 0 512 512" style="width: 256px; height: 256px; opacity: 1;" xml:space="preserve">
<style type="text/css">

	.st0{fill:#4B4B4B;}

</style>
<g>
	<path class="st0" d="M422.109,212.281v15.625h-36.953v-98.766C385.156,57.813,327.313,0,256,0
		c-71.328,0-129.156,57.813-129.156,129.141v98.766H89.891v-15.625H52.938v58.922c0.031,105.016,79.984,191.547,182.266,202V512
		h41.578v-38.797c102.281-10.453,182.25-96.984,182.281-202v-58.922H422.109z M154.563,129.141
		c0-37.406,20.406-70.047,50.625-87.641v50.125c0,7.656,6.188,13.859,13.859,13.859c7.641,0,13.844-6.203,13.844-13.859V31.563
		c0-0.375-0.078-0.703-0.094-1.063C240.266,28.75,248,27.719,256,27.719s15.734,1.031,23.203,2.781
		c-0.047,0.359-0.109,0.688-0.109,1.063v60.063c0,7.656,6.203,13.859,13.859,13.859c7.641,0,13.859-6.203,13.859-13.859V41.5
		c30.219,17.594,50.625,50.234,50.625,87.641v38.734H154.563V129.141z M422.109,271.203c-0.016,45.828-18.609,87.25-48.734,117.391
		C343.25,418.719,301.828,437.313,256,437.313s-87.25-18.594-117.406-48.719c-30.109-30.141-48.703-71.563-48.703-117.391v-6.328
		h36.953v6.328c0,71.328,57.828,129.141,129.156,129.141c71.313,0,129.156-57.813,129.156-129.141v-6.328h36.953V271.203z" style="fill: rgb(230, 230, 230);"></path>
</g>
</svg>
